<?xml version="1.0" standalone="no"?>
<!DOCTYPE svg PUBLIC "-//W3C//DTD SVG 20010904//EN"
 "http://www.w3.org/TR/2001/REC-SVG-20010904/DTD/svg10.dtd">
<svg version="1.0" xmlns="http://www.w3.org/2000/svg"
 width="1280.000000pt" height="640.000000pt" viewBox="0 0 1280.000000 640.000000"
 preserveAspectRatio="xMidYMid meet">
<metadata>
Created by potrace 1.15, written by Peter Selinger 2001-2017
</metadata>
<g transform="translate(0.000000,640.000000) scale(0.100000,-0.100000)"
fill="#000000" stroke="none">
<path d="M12077 4535 c-19 -18 -22 -39 -48 -295 -26 -256 -37 -690 -20 -743 8
-22 28 -48 49 -65 20 -15 53 -44 74 -66 20 -21 43 -36 50 -34 10 4 13 64 13
269 2 298 9 360 77 633 l42 169 -28 23 c-15 13 -34 24 -42 24 -8 0 -14 10 -14
23 0 27 -8 38 -40 60 -30 21 -93 22 -113 2z"/>
<path d="M557 4496 c-106 -44 -194 -122 -290 -257 -97 -137 -122 -233 -65
-253 24 -8 32 -6 58 19 l30 29 -17 -42 c-29 -74 17 -122 68 -71 11 11 47 77
80 146 33 70 77 150 98 178 45 60 119 103 191 112 l50 6 16 -39 c24 -56 29
-241 11 -392 -8 -67 -17 -125 -20 -128 -3 -3 -31 -12 -63 -21 -32 -8 -75 -23
-96 -34 -37 -19 -66 -55 -53 -67 3 -3 50 3 105 15 68 14 100 17 100 9 0 -18
-14 -33 -37 -40 -28 -9 -73 -45 -73 -58 0 -7 15 -9 40 -5 36 5 40 3 40 -16 0
-12 -25 -120 -55 -241 -30 -120 -55 -231 -55 -247 0 -30 40 -69 71 -69 12 0
19 -7 19 -20 0 -34 35 -60 80 -60 24 0 42 5 44 13 5 19 56 336 81 505 12 83
28 159 35 167 7 8 25 15 40 15 l28 0 -5 -82 c-3 -46 0 -117 6 -158 18 -116 50
-176 143 -265 91 -88 125 -105 206 -105 49 0 66 5 106 31 26 17 57 46 69 65
l23 33 41 -27 c23 -15 47 -37 52 -50 12 -25 66 -52 103 -52 37 0 82 34 117 89
18 28 34 51 36 51 16 0 61 -35 76 -59 20 -33 52 -46 100 -39 l31 5 -5 -46 c-4
-25 -11 -108 -18 -183 -18 -206 7 -322 77 -355 17 -9 37 -26 43 -39 14 -32 56
-57 81 -49 26 8 25 27 -2 95 -19 48 -22 72 -20 185 2 155 27 402 44 422 9 12
17 8 47 -20 20 -19 46 -40 58 -46 34 -18 104 -13 141 9 90 55 164 267 178 516
8 128 -2 170 -52 224 -18 19 -50 54 -71 77 -42 45 -104 69 -153 58 -16 -3 -48
-27 -71 -52 -53 -58 -89 -65 -89 -17 0 41 -29 66 -70 62 l-32 -3 -4 -122 c-4
-109 -8 -134 -44 -242 -46 -137 -109 -280 -133 -300 -16 -12 -17 -6 -17 79 0
92 22 204 55 284 21 50 13 71 -33 82 -33 8 -37 12 -34 37 5 36 -13 57 -48 57
-21 0 -34 10 -55 40 -34 49 -77 77 -131 86 -36 5 -45 2 -76 -25 -42 -37 -88
-134 -123 -261 -85 -310 -212 -496 -310 -452 -37 17 -50 92 -50 285 0 138 3
169 15 177 9 5 65 7 133 3 104 -5 119 -4 137 12 39 35 14 65 -56 65 -34 0 -36
1 -22 18 45 51 26 71 -74 79 -40 3 -78 8 -84 12 -7 4 8 73 42 201 71 263 81
313 66 345 -8 16 -23 28 -42 31 -22 5 -30 12 -30 28 0 53 -64 89 -121 67 -21
-7 -25 -15 -22 -33 2 -13 -10 -97 -27 -187 -17 -90 -41 -229 -54 -309 l-22
-147 -40 -3 -39 -3 0 198 c0 231 -10 274 -81 354 -24 27 -51 61 -60 75 -44 66
-161 83 -267 40z m131 -65 c9 -5 -2 -14 -35 -26 -60 -23 -85 -38 -150 -92 -44
-37 -131 -143 -180 -219 -22 -34 28 89 64 159 43 81 100 142 156 168 43 19
122 25 145 10z m199 -543 c-2 -13 -4 -3 -4 22 0 25 2 35 4 23 2 -13 2 -33 0
-45z m-10 -60 c-3 -7 -5 -2 -5 12 0 14 2 19 5 13 2 -7 2 -19 0 -25z m916 5 c4
-3 -2 -12 -13 -20 -31 -22 -70 -95 -101 -191 -33 -102 -38 -85 -8 30 35 138
88 216 122 181z m708 -29 c-18 -19 -45 -60 -62 -90 -34 -59 -44 -65 -52 -32
-14 52 64 158 116 158 l29 0 -31 -36z m-635 -144 c-19 -167 -124 -450 -167
-450 -11 0 -5 59 22 215 23 135 49 221 84 281 26 45 27 45 47 27 17 -15 19
-26 14 -73z m700 -23 c-16 -245 -82 -437 -151 -437 -19 0 -23 7 -29 46 -11 87
29 286 80 387 30 59 82 119 97 110 6 -4 7 -44 3 -106z m-1536 93 c0 -5 -17
-10 -37 -10 -28 0 -34 3 -23 10 20 13 60 13 60 0z m916 -230 c-12 -64 -14 -69
-15 -33 -1 47 22 159 26 128 2 -11 -3 -54 -11 -95z m-299 8 c-3 -8 -6 -5 -6 6
-1 11 2 17 5 13 3 -3 4 -12 1 -19z m1010 -20 c-3 -7 -5 -2 -5 12 0 14 2 19 5
13 2 -7 2 -19 0 -25z m-27 -149 c-23 -108 -63 -194 -102 -223 -22 -16 -33 -17
-60 -9 l-33 9 30 16 c74 40 142 160 171 303 6 26 9 33 12 19 1 -11 -6 -63 -18
-115z m-480 -79 c-8 -48 -20 -80 -37 -100 -28 -34 -44 -37 -68 -14 -14 15 -12
20 25 60 22 24 50 64 62 89 12 24 24 43 26 40 2 -2 -1 -36 -8 -75z m-296 -53
c-23 -50 -71 -107 -90 -107 -8 0 -23 5 -34 12 -18 11 -17 14 19 45 21 18 54
62 72 98 l34 65 9 -36 c6 -27 4 -45 -10 -77z m-324 42 c0 -30 -42 -92 -89
-132 -36 -30 -94 -37 -125 -14 -16 12 -15 14 21 25 49 15 113 69 149 126 30
47 44 45 44 -5z m700 -164 c-10 -66 -18 -111 -19 -100 -1 26 18 196 24 214 13
35 11 -3 -5 -114z"/>
<path d="M5503 4513 c-9 -3 -13 -26 -13 -66 0 -92 -25 -230 -80 -442 -76 -294
-50 -258 -220 -314 -248 -83 -442 -188 -526 -284 -72 -82 -103 -191 -73 -250
19 -37 152 -159 194 -178 54 -25 159 -25 229 0 171 60 352 278 446 539 13 35
30 67 39 71 20 11 212 53 218 48 2 -2 10 -49 18 -103 31 -201 85 -341 154
-392 20 -15 46 -40 60 -55 28 -33 71 -57 103 -57 60 1 144 62 194 142 l25 39
26 -21 c14 -11 32 -20 39 -20 8 0 14 -4 14 -9 0 -21 53 -71 75 -71 36 0 80 62
122 169 l37 95 17 -53 c20 -58 56 -121 69 -121 5 0 32 -22 59 -50 43 -43 56
-50 89 -50 47 0 79 23 123 86 l30 44 26 -20 c14 -11 32 -20 39 -20 8 0 14 -4
14 -9 0 -21 53 -71 75 -71 44 0 80 59 150 245 6 16 11 10 26 -33 20 -60 56
-122 69 -122 5 0 32 -22 59 -50 44 -44 55 -50 92 -50 35 0 47 6 79 38 20 20
41 46 47 56 10 17 14 18 42 6 18 -7 38 -25 46 -39 23 -46 88 -69 137 -48 35
15 102 83 120 122 l11 25 46 -41 c25 -22 49 -43 53 -47 3 -4 20 -22 36 -39 41
-45 87 -45 137 -2 47 42 77 94 116 207 18 52 37 96 43 98 6 2 38 -7 71 -20 54
-23 61 -29 72 -65 20 -69 52 -116 127 -183 79 -72 96 -82 145 -92 56 -10 109
11 168 67 88 83 172 275 243 555 8 32 15 42 31 42 21 0 21 -2 14 -202 -8 -227
-1 -275 45 -317 15 -14 51 -47 78 -73 43 -41 56 -48 92 -48 33 0 48 7 83 40
24 21 52 55 62 74 l18 34 33 -32 c18 -17 52 -50 76 -73 94 -91 213 -98 290
-17 31 33 61 98 50 109 -6 7 94 -87 110 -103 3 -4 18 -19 31 -34 30 -33 86
-45 128 -28 26 11 72 61 104 114 9 16 12 16 43 1 17 -9 32 -21 32 -26 0 -6 11
-21 25 -34 36 -37 94 -34 139 5 64 57 143 240 209 485 28 102 35 120 52 120
19 0 20 -8 20 -232 0 -219 1 -233 21 -260 11 -15 35 -37 52 -48 17 -11 34 -28
38 -38 9 -27 64 -57 106 -57 42 0 92 37 129 96 l21 34 34 -30 c19 -16 38 -30
42 -30 4 0 15 -13 25 -29 21 -36 88 -65 129 -56 16 4 45 20 63 36 l34 30 6
-44 c11 -72 8 -75 -89 -108 -377 -126 -556 -319 -466 -503 32 -67 185 -198
256 -221 128 -40 302 5 377 98 75 92 99 179 103 372 2 77 3 143 3 147 2 16 92
30 198 32 117 1 148 11 117 37 -19 16 -136 19 -247 6 -57 -6 -68 -5 -73 8 -4
9 -3 19 1 23 4 4 59 7 123 7 99 1 117 3 126 19 21 34 -16 46 -145 46 -113 0
-117 1 -122 23 -3 12 -9 92 -12 177 -8 191 5 340 40 437 32 92 33 148 4 164
-12 6 -30 9 -40 6 -16 -4 -19 1 -19 38 0 46 -9 55 -60 55 -39 0 -50 -19 -62
-102 -32 -237 -95 -475 -151 -571 -48 -81 -57 -59 -46 108 4 61 15 157 25 215
22 139 22 151 2 164 -29 18 -51 -5 -71 -75 l-17 -64 5 55 c3 30 11 78 17 107
13 60 2 83 -38 83 -31 0 -45 -29 -79 -165 -51 -205 -125 -385 -180 -435 l-28
-25 8 85 c4 47 13 123 21 170 22 138 20 157 -23 199 -21 20 -45 49 -53 65 -8
15 -36 41 -63 56 -48 27 -49 29 -51 77 -1 57 -27 103 -56 103 -15 0 -22 9 -26
29 -8 39 -39 71 -68 71 -60 0 -85 -106 -46 -198 l22 -51 -27 -103 c-57 -215
-149 -455 -188 -487 -16 -12 -17 -6 -17 75 0 90 24 213 55 287 21 51 13 72
-33 83 -33 8 -37 12 -34 37 5 36 -13 57 -48 57 -21 0 -34 9 -53 39 -31 47 -79
78 -133 87 -36 5 -45 2 -76 -25 -64 -56 -129 -241 -160 -453 -6 -49 -16 -88
-20 -88 -4 0 -8 5 -8 12 0 6 -32 58 -71 116 -79 117 -119 194 -119 233 0 15 7
45 15 69 21 59 1 90 -57 90 -16 0 -19 5 -13 29 9 40 -15 61 -69 61 -68 0 -78
-14 -86 -116 -15 -169 -155 -552 -216 -591 -21 -13 -21 -13 -17 49 2 35 13
121 24 191 17 114 17 132 4 163 -8 18 -24 39 -37 45 -13 5 -32 27 -43 47 -13
24 -37 46 -67 62 -48 25 -48 25 -48 76 0 57 -27 104 -61 104 -10 0 -19 7 -19
15 0 30 -30 75 -54 81 -77 19 -111 -108 -56 -203 l19 -33 -40 -146 c-22 -81
-51 -175 -64 -211 -67 -178 -160 -303 -225 -303 -47 0 -47 24 -2 77 100 121
161 267 169 405 l6 87 -44 44 c-24 25 -52 57 -63 72 -39 57 -125 71 -176 29
-43 -36 -66 -87 -106 -228 -19 -66 -40 -126 -46 -133 -19 -24 -49 -35 -73 -29
-23 6 -24 6 -18 134 6 155 -6 207 -49 207 -23 -1 -28 5 -37 40 -15 55 -24 67
-52 63 -41 -5 -54 -49 -50 -168 7 -219 5 -265 -13 -340 -32 -128 -79 -217 -98
-188 -13 21 -8 217 7 303 8 44 18 97 21 119 l7 38 -47 -4 -48 -3 7 52 6 53
-36 0 c-20 0 -49 -7 -64 -15 -32 -16 -41 -49 -41 -148 0 -89 -105 -352 -161
-403 -19 -17 -19 -15 -19 59 0 83 27 237 58 332 24 72 14 98 -38 103 -29 3
-32 6 -27 31 9 43 -13 66 -62 64 -23 -1 -45 -4 -50 -7 -4 -3 -11 -47 -14 -98
-4 -52 -18 -133 -32 -183 -30 -103 -112 -281 -142 -308 -20 -17 -20 -17 -27
29 -13 99 1 316 28 436 15 66 9 82 -40 98 -32 11 -35 15 -29 41 6 25 3 30 -32
44 -57 24 -86 28 -106 13 -13 -9 -33 -69 -63 -183 -45 -172 -93 -329 -99 -323
-2 2 3 53 11 113 25 186 22 200 -40 192 -27 -4 -28 -2 -23 30 11 66 -52 95
-100 47 -24 -24 -25 -30 -20 -90 6 -56 2 -78 -29 -172 -35 -109 -120 -282
-141 -289 -31 -11 -24 313 11 477 16 73 12 83 -40 100 -32 11 -35 15 -29 41 6
25 3 30 -32 44 -57 24 -86 28 -105 13 -11 -8 -33 -71 -58 -168 -43 -164 -100
-344 -106 -338 -2 2 5 64 16 137 10 74 16 140 13 148 -6 16 -47 27 -69 19 -14
-5 -16 -1 -10 33 5 34 3 42 -16 55 -32 22 -55 20 -83 -9 -26 -25 -33 -77 -16
-119 22 -56 -103 -358 -181 -439 -61 -64 -83 -63 -103 6 -35 122 -74 378 -63
408 4 9 41 24 93 37 93 23 139 46 132 65 -4 14 -47 14 -156 2 -87 -10 -91 5
-8 29 53 15 87 41 87 65 0 9 -19 12 -72 9 l-73 -3 -6 195 c-4 124 -11 209 -19
234 -19 52 -160 211 -201 225 -32 11 -143 14 -166 4z m223 -482 c-4 -113 -8
-206 -9 -208 -3 -3 -157 -33 -168 -33 -5 0 139 466 157 510 17 39 25 -79 20
-269z m-211 -70 c-39 -152 -52 -190 -67 -194 -10 -3 -18 -2 -18 1 0 16 124
391 128 387 2 -2 -17 -89 -43 -194z m302 -83 c-2 -24 -4 -7 -4 37 0 44 2 63 4
43 2 -21 2 -57 0 -80z m2953 -67 c-22 -21 -40 -46 -40 -56 0 -10 -3 -16 -6
-12 -3 3 2 28 11 56 18 54 41 77 62 59 9 -7 2 -19 -27 -47z m1625 19 c3 -5 1
-10 -4 -10 -17 0 -69 -78 -92 -139 -11 -31 -32 -101 -45 -156 -15 -62 -22 -81
-19 -50 9 79 53 251 74 294 32 63 69 89 86 61z m-1182 -84 c-20 -90 -91 -324
-118 -387 -41 -98 -115 -209 -153 -231 -33 -19 -88 -23 -112 -8 -8 5 -12 10
-10 12 3 2 27 14 54 28 117 59 215 253 306 610 12 43 12 44 25 21 7 -13 10
-33 8 -45z m1693 -90 c-40 -157 -81 -276 -132 -386 -62 -132 -92 -160 -129
-124 -14 15 -12 20 24 59 70 76 151 270 211 505 26 102 31 110 44 81 8 -18 4
-49 -18 -135z m-2000 25 c-10 -107 -68 -261 -124 -323 -46 -53 -43 26 4 103
39 65 88 191 99 257 11 69 29 39 21 -37z m1559 -24 c-9 -82 -39 -197 -80 -302
-33 -86 -77 -156 -89 -144 -13 13 33 289 67 401 8 26 27 68 42 94 26 45 27 45
47 27 17 -16 19 -26 13 -76z m-4745 73 c0 -14 -32 -27 -114 -45 -47 -10 -73
-12 -80 -5 -15 15 -3 21 86 40 102 22 108 23 108 10z m6094 -80 l-13 -75 4 61
c4 55 14 99 20 92 2 -2 -3 -37 -11 -78z m-2044 45 c8 -20 2 -53 -26 -148 -75
-254 -151 -397 -210 -397 -54 0 -55 10 -8 57 58 59 139 224 190 391 20 67 39
122 41 122 2 0 8 -11 13 -25z m-4339 -34 c-14 -24 -46 -38 -37 -15 3 8 6 20 6
25 0 5 9 9 20 9 17 0 19 -3 11 -19z m-132 -46 c-8 -7 -59 -30 -114 -50 -194
-72 -334 -154 -417 -243 -51 -54 -61 -47 -28 18 43 84 239 201 460 274 100 34
133 34 99 1z m2432 -39 c-14 -77 -34 -135 -25 -71 9 67 27 145 32 141 2 -3 -1
-34 -7 -70z m-1172 -23 c-5 -66 -18 -120 -51 -212 -42 -121 -66 -157 -88 -135
-7 7 -2 30 19 75 23 51 62 167 117 347 8 28 9 7 3 -75z m654 -195 c-47 -139
-69 -176 -93 -152 -8 8 -2 30 19 78 32 71 110 304 113 340 1 11 4 -12 5 -51 4
-65 -1 -87 -44 -215z m3333 142 c-12 -64 -14 -69 -15 -33 -1 47 22 159 26 128
2 -11 -3 -54 -11 -95z m-651 -8 c52 -88 69 -141 60 -188 -13 -72 -94 -126
-134 -90 -10 9 -22 16 -28 16 -16 0 -36 28 -50 68 -9 28 -9 40 2 61 7 14 27
72 45 129 37 120 36 120 105 4z m-4519 -16 c-69 -183 -179 -336 -288 -400 -50
-29 -129 -47 -172 -39 -27 5 -24 8 40 38 38 17 93 51 122 74 72 58 169 182
227 293 60 117 64 121 81 107 11 -9 9 -22 -10 -73z m-116 38 c0 -4 -21 -47
-47 -97 -102 -193 -267 -313 -387 -283 -22 5 -26 12 -26 42 0 101 110 198 335
296 111 48 125 53 125 42z m3086 -99 c-30 -156 -81 -255 -130 -255 -13 0 -25
3 -29 6 -3 3 14 32 38 65 39 53 98 190 112 262 4 19 9 25 16 18 7 -7 5 -37 -7
-96z m214 40 c0 -28 -17 -32 -46 -11 -18 14 -18 15 6 25 37 14 40 13 40 -14z
m2557 -22 c-3 -10 -5 -2 -5 17 0 19 2 27 5 18 2 -10 2 -26 0 -35z m-1720 -95
c-2 -24 -4 -5 -4 42 0 47 2 66 4 43 2 -24 2 -62 0 -85z m-1443 -64 c-47 -100
-106 -148 -141 -113 -8 8 1 22 31 52 23 23 59 77 81 119 l40 78 8 -40 c7 -32
3 -49 -19 -96z m3153 59 c-2 -16 -4 -5 -4 22 0 28 2 40 4 28 2 -13 2 -35 0
-50z m-4892 -99 c-35 -60 -82 -112 -116 -130 -35 -17 -50 -18 -73 -1 -17 13
-15 16 28 41 50 29 107 99 152 186 l29 55 3 -53 c3 -43 -2 -62 -23 -98z m725
99 c0 -34 -9 -62 -36 -110 -42 -75 -73 -100 -103 -83 -12 6 -21 13 -21 17 0 3
19 27 43 52 24 25 56 74 73 108 16 34 32 62 37 62 4 1 7 -20 7 -46z m4389
-114 c-34 -54 -54 -69 -92 -69 -40 0 -39 11 7 60 25 26 59 76 78 111 l33 64 3
-58 c3 -52 -1 -65 -29 -108z m-3710 52 c1 -28 -53 -117 -80 -132 -19 -10 -59
3 -59 19 0 5 16 24 36 43 19 18 47 55 62 81 28 50 40 46 41 -11z m2835 -64
c-23 -50 -71 -107 -90 -107 -8 0 -23 5 -34 12 -18 11 -17 14 19 45 21 18 54
62 72 98 l34 65 9 -36 c6 -27 4 -45 -10 -77z m1248 67 c2 -74 -60 -162 -107
-150 -35 9 -31 25 14 68 21 21 49 58 62 82 13 25 25 44 26 42 2 -1 4 -20 5
-42z m-1668 -96 c-26 -58 -88 -83 -148 -59 -15 6 -10 10 25 20 56 17 94 44
116 82 25 43 31 9 7 -43z m1699 -271 c-3 -17 -16 -26 -50 -37 -74 -21 -246
-112 -305 -160 -66 -54 -113 -113 -132 -166 l-15 -39 0 49 c-2 131 133 251
383 342 111 40 125 42 119 11z m1 -96 c8 -13 -11 -160 -29 -218 -38 -128 -131
-203 -251 -203 -35 0 -82 7 -104 16 -38 15 -40 18 -40 60 0 118 121 237 325
321 88 36 91 37 99 24z m82 -223 c-30 -157 -97 -252 -200 -283 -61 -18 -96
-19 -161 -1 l-50 13 70 7 c186 21 299 125 337 308 19 90 22 51 4 -44z"/>
<path d="M7725 4098 c-55 -30 -62 -92 -14 -132 17 -14 37 -26 45 -26 8 0 14
-7 14 -15 0 -9 11 -27 25 -40 51 -51 145 -18 145 51 0 35 -28 74 -54 74 -8 0
-17 12 -20 26 -16 61 -86 92 -141 62z"/>
<path d="M3741 3936 c-7 -8 -21 -75 -32 -148 -31 -220 -87 -416 -145 -515 -14
-24 -30 -43 -36 -43 -15 0 -4 248 18 375 22 132 22 145 2 159 -29 18 -51 -5
-71 -75 l-17 -64 5 55 c3 30 11 78 17 107 13 60 2 83 -39 83 -19 0 -28 -9 -43
-42 -25 -57 -49 -223 -57 -384 -7 -156 7 -214 63 -264 19 -16 38 -30 42 -30 4
0 15 -13 25 -29 21 -36 88 -65 129 -56 16 4 45 20 63 36 l34 30 6 -44 c11 -72
8 -75 -90 -108 -212 -70 -395 -187 -455 -292 -24 -42 -30 -64 -30 -111 0 -87
25 -130 130 -223 110 -99 161 -119 281 -110 130 9 228 66 282 165 44 80 58
154 63 312 2 80 4 148 4 152 0 16 91 30 197 32 117 1 148 11 117 37 -19 16
-136 19 -247 6 -57 -6 -68 -5 -73 8 -4 9 -3 19 1 23 4 4 59 7 123 7 99 1 117
3 126 19 21 34 -16 46 -145 46 -139 0 -125 -20 -134 195 -8 193 6 348 40 438
44 118 31 186 -34 174 -21 -4 -23 -2 -18 29 4 23 1 39 -9 49 -19 19 -78 20
-93 1z m53 -286 l-13 -75 4 61 c4 55 14 99 20 92 2 -2 -3 -37 -11 -78z m-337
-92 c-3 -8 -6 -5 -6 6 -1 11 2 17 5 13 3 -3 4 -12 1 -19z m209 -356 c-32 -63
-58 -86 -91 -78 -35 9 -32 21 18 70 23 24 51 63 62 86 l19 43 8 -37 c6 -29 3
-46 -16 -84z m48 -294 c-3 -13 -7 -23 -8 -23 -42 -12 -105 -38 -196 -83 -96
-47 -126 -68 -191 -131 -52 -52 -81 -90 -92 -121 l-17 -45 3 61 c3 51 9 69 38
110 62 86 177 159 343 220 112 41 130 42 120 12z m1 -98 c8 -13 -11 -155 -30
-217 -38 -128 -131 -203 -251 -203 -35 0 -82 7 -104 16 -38 15 -40 18 -40 60
0 117 122 237 325 321 89 36 91 37 100 23z m81 -227 c-32 -155 -99 -248 -200
-278 -61 -18 -96 -19 -161 -1 l-50 13 70 7 c186 21 299 124 337 309 7 34 14
54 16 44 2 -9 -4 -52 -12 -94z"/>
<path d="M2797 3926 c-11 -8 -16 -49 -21 -166 -6 -179 -23 -334 -68 -615 -25
-160 -31 -233 -32 -365 -1 -157 0 -167 24 -215 17 -35 35 -54 58 -64 17 -8 32
-20 32 -27 0 -15 57 -64 75 -64 32 0 34 25 8 106 -24 75 -25 87 -19 224 5 132
17 262 31 348 4 23 11 32 25 32 11 0 20 -4 20 -9 0 -5 21 -23 47 -40 149 -99
279 39 327 350 39 252 33 308 -45 389 -27 28 -49 55 -49 60 0 17 -74 58 -117
65 -52 8 -87 -9 -130 -63 -26 -32 -37 -39 -57 -35 -22 4 -26 11 -26 38 0 18
-6 37 -12 42 -22 17 -56 21 -71 9z m277 -128 c-22 -24 -50 -64 -64 -90 -14
-27 -31 -48 -37 -48 -35 0 7 122 54 160 14 11 39 20 56 20 l30 0 -39 -42z m65
-199 c-22 -235 -83 -399 -148 -399 -84 0 15 451 117 530 l27 21 6 -26 c4 -14
3 -71 -2 -126z m71 -240 c-34 -166 -86 -259 -144 -259 -45 0 -49 16 -11 40 20
12 52 45 71 74 33 49 93 211 95 259 1 14 3 16 6 6 2 -9 -6 -63 -17 -120z
m-404 -274 l-15 -90 5 80 c2 44 8 96 12 115 14 74 13 -14 -2 -105z"/>
<path d="M12031 3314 c-26 -21 -31 -33 -31 -69 0 -48 26 -89 64 -99 13 -3 29
-18 36 -35 14 -34 58 -56 95 -47 57 14 77 106 34 152 -12 13 -28 24 -34 24 -6
0 -19 17 -28 38 -28 64 -85 79 -136 36z"/>
</g>
</svg>
